<svg width="84" height="84" viewBox="0 0 84 84" fill="none" xmlns="http://www.w3.org/2000/svg">
<g clip-path="url(#clip0_1111_3925)">
<path d="M58.4178 68.3246C57.7342 68.3246 57.1167 67.8761 56.8952 67.2321C56.6858 66.6238 56.8744 65.9298 57.3568 65.5059C57.883 65.0436 58.672 64.9783 59.2671 65.3482C59.8204 65.6923 60.119 66.3619 60.0014 67.0033C59.8629 67.7575 59.1859 68.3246 58.4178 68.3246Z" fill="white"/>
<path d="M71.3636 30.5523C68.3462 26.5179 64.2656 23.6696 59.8733 22.5321C56.952 21.7761 53.4208 21.8397 49.3756 22.7217L49.3755 22.7207C49.3574 22.725 49.3193 22.7337 49.2582 22.7474C49.1524 22.7686 49.0482 22.7929 48.9461 22.8168C48.6922 22.8761 48.301 22.9698 47.8818 23.0789C47.332 23.2213 46.7731 23.3454 46.2158 23.449C46.2073 23.0324 46.1917 22.6042 46.1672 22.1663C46.6435 16.861 48.7971 12.301 52.5869 8.58588C55.8669 5.37055 59.2139 4.01593 59.244 4.00386C60.0711 3.67881 60.4782 2.74467 60.1532 1.91755C59.8281 1.09026 58.894 0.683459 58.067 1.00835C57.9098 1.07031 54.1741 2.56299 50.4359 6.18834C48.4557 8.10891 46.2578 10.8603 44.7394 14.5531C43.9285 12.255 42.7078 10.0554 40.8982 8.24778C33.6043 0.961849 19.9345 3.23049 19.1291 3.37193C19.1285 3.3721 19.1278 3.3721 19.1272 3.37226C18.5376 3.46656 18.0423 3.87851 17.8677 4.44945C17.8419 4.53361 17.8213 4.61214 17.8096 4.67763C17.717 5.1974 15.8433 16.1632 20.564 23.7536C14.0312 26.8864 7.12695 34.6372 7.12695 47.5188C7.12695 52.0881 8.51923 57.673 11.0476 63.2445C13.5246 68.7032 16.8701 73.6913 20.4675 77.2895C24.387 81.2135 28.4143 83.2876 32.1137 83.2876C34.2801 83.2876 36.5121 82.9598 38.5693 82.3391C40.5956 81.7265 42.7477 81.6876 44.7939 82.2263C44.801 82.2283 44.8083 82.2302 44.8153 82.232C44.9418 82.2654 45.0678 82.3012 45.1945 82.3395C47.2507 82.9596 49.4826 83.2876 51.6491 83.2876C55.1887 83.2876 59.0467 81.3791 62.8053 77.769C70.5606 70.3301 76.6357 57.0427 76.6357 47.5188C76.635 41.0299 74.8123 35.163 71.3636 30.5523ZM38.6232 10.525C41.6996 13.5982 42.7033 18.287 42.934 22.2288C42.8771 22.9524 42.8471 26.1138 42.8471 26.1138L30.6414 13.9212C30.0126 13.2931 28.9936 13.2934 28.3657 13.9224C27.7376 14.5511 27.7381 15.5701 28.3668 16.1983L40.6574 28.4756C36.4541 28.7008 29.1816 28.3815 24.9621 24.1665C19.8941 19.104 20.4512 9.65744 20.822 6.38869C24.0936 6.01825 33.5537 5.46083 38.6232 10.525ZM60.5759 75.4471C57.4277 78.4708 54.3405 80.0692 51.6483 80.0692C49.819 80.0692 47.8569 79.7812 46.1239 79.2585C45.9633 79.2099 45.8021 79.1644 45.6404 79.1216C45.6378 79.1209 45.6354 79.1201 45.633 79.1195C43.005 78.4238 40.2401 78.4718 37.6382 79.2582C35.9044 79.7812 33.9422 80.0692 32.1129 80.0692C29.2863 80.0692 26.0465 78.3215 22.7432 75.0144C15.7907 68.0601 10.3447 55.9825 10.3447 47.5188C10.3447 35.6917 16.7906 28.8305 22.6054 26.3608C22.6326 26.3885 22.6602 26.4162 22.6877 26.4437C27.0986 30.8498 33.8741 31.7555 38.7007 31.7553C41.7622 31.7553 44.0436 31.4087 44.4309 31.3241C45.716 31.0428 45.6846 30.4437 45.7646 30.0739C45.7656 30.0692 45.7667 30.0646 45.7677 30.0599C45.7688 30.0547 45.7697 30.0494 45.7709 30.0443C45.7722 30.0377 45.7735 30.0311 45.7747 30.0243C45.7752 30.0214 45.7759 30.0187 45.7763 30.0158C45.8064 29.8478 46.0235 28.5881 46.1439 26.7036C46.2382 26.7042 46.3338 26.6967 46.4298 26.6803C47.1837 26.5509 47.9436 26.3876 48.69 26.1943C48.977 26.1195 49.2548 26.0514 49.4855 25.9965C56.1239 28.3115 62.6889 35.7778 62.6889 47.519C62.6889 50.9583 61.8018 55.0596 60.1233 59.38C59.8014 60.2083 60.2121 61.1408 61.0405 61.4626C61.232 61.537 61.4291 61.5724 61.6229 61.5724C62.2673 61.5724 62.8758 61.1823 63.1233 60.5454C64.9446 55.8573 65.9073 51.3529 65.9073 47.519C65.9073 36.824 60.9888 29.2128 55.0517 25.2297C56.5291 25.199 57.8709 25.3384 59.0668 25.6478C65.9783 27.4377 73.4169 35.0453 73.4169 47.5188C73.4166 56.127 67.6567 68.6554 60.5759 75.4471Z" fill="white"/>
</g>
<defs>
<clipPath id="clip0_1111_3925">
<rect width="82.3911" height="82.3911" fill="white" transform="translate(0.685547 0.896484)"/>
</clipPath>
</defs>
</svg>
