<svg width="202" height="38" viewBox="0 0 202 38" fill="none" xmlns="http://www.w3.org/2000/svg">
<path d="M7.71875 29.8125C6.67708 29.8125 5.72917 29.5625 4.875 29.0625C4.04167 28.5625 3.32292 27.875 2.71875 27C2.13542 26.125 1.6875 25.1042 1.375 23.9375C1.08333 22.75 0.958333 21.4896 1 20.1562C1.04167 18.9062 1.19792 17.5521 1.46875 16.0938C1.76042 14.6354 2.16667 13.1771 2.6875 11.7188C3.20833 10.2396 3.83333 8.82292 4.5625 7.46875C5.3125 6.09375 6.16667 4.88542 7.125 3.84375C8.08333 2.80208 9.14583 1.96875 10.3125 1.34375C11.4792 0.697917 12.7604 0.375 14.1562 0.375C15.0104 0.375 15.7292 0.552083 16.3125 0.90625C16.9167 1.23958 17.3958 1.6875 17.75 2.25C18.125 2.8125 18.3854 3.44792 18.5312 4.15625C18.6771 4.86458 18.7396 5.58333 18.7188 6.3125C18.6771 7 18.5729 7.66667 18.4062 8.3125C18.2604 8.95833 18.0417 9.54167 17.75 10.0625C17.4792 10.5625 17.1354 10.9688 16.7188 11.2812C16.3229 11.5729 15.8646 11.7188 15.3438 11.7188C15.0938 11.6979 14.8542 11.6146 14.625 11.4688C14.4167 11.3438 14.1979 11.1562 13.9688 10.9062C13.7604 10.6562 13.5625 10.2917 13.375 9.8125C13.9375 9.58333 14.375 9.1875 14.6875 8.625C15.0208 8.04167 15.2708 7.4375 15.4375 6.8125C15.625 6.10417 15.75 5.3125 15.8125 4.4375C15.8542 3.58333 15.6771 2.95833 15.2812 2.5625C14.8854 2.16667 14.4375 1.96875 13.9375 1.96875C12.9583 1.96875 11.9271 2.47917 10.8438 3.5C9.76042 4.52083 8.75 5.90625 7.8125 7.65625C6.89583 9.38542 6.11458 11.4062 5.46875 13.7188C4.84375 16.0312 4.47917 18.4792 4.375 21.0625C4.33333 22.2292 4.40625 23.2188 4.59375 24.0312C4.80208 24.8438 5.08333 25.5104 5.4375 26.0312C5.8125 26.5521 6.22917 26.9271 6.6875 27.1562C7.14583 27.3854 7.60417 27.5 8.0625 27.5C8.79167 27.5 9.47917 27.3438 10.125 27.0312C10.7708 26.7188 11.3542 26.3333 11.875 25.875C12.4167 25.4167 12.875 24.9375 13.25 24.4375C13.6458 23.9583 13.9479 23.5312 14.1562 23.1562C14.3021 22.8854 14.4583 22.7188 14.625 22.6562C14.7917 22.5938 14.9375 22.6146 15.0625 22.7188C15.1875 22.8021 15.2708 22.9479 15.3125 23.1562C15.3542 23.3438 15.3125 23.5729 15.1875 23.8438C14.8333 24.5521 14.3958 25.2604 13.875 25.9688C13.375 26.6771 12.8021 27.3125 12.1562 27.875C11.5312 28.4583 10.8438 28.9271 10.0938 29.2812C9.34375 29.6354 8.55208 29.8125 7.71875 29.8125ZM22.4375 24.5C21.6458 24.5 21 24.375 20.5 24.125C20 23.875 19.6042 23.5729 19.3125 23.2188C19.0417 22.8438 18.8438 22.4479 18.7188 22.0312C18.6146 21.5938 18.5625 21.1979 18.5625 20.8438C18.5625 20.2188 18.6146 19.5625 18.7188 18.875C18.8229 18.1667 18.9479 17.5208 19.0938 16.9375C19.2396 16.3333 19.3646 15.8229 19.4688 15.4062C19.5938 14.9896 19.6771 14.7292 19.7188 14.625C19.9062 14.0208 20.1458 13.5 20.4375 13.0625C20.75 12.6042 21.1771 12.2917 21.7188 12.125C21.9271 12.0833 22.1458 12.0417 22.375 12C22.5625 11.9792 22.75 11.9688 22.9375 11.9688C23.1458 11.9688 23.3333 12 23.5 12.0625C22.9375 13.5 22.4896 14.6979 22.1562 15.6562C21.8438 16.6146 21.6042 17.3958 21.4375 18C21.25 18.6875 21.1354 19.2396 21.0938 19.6562C20.9896 20.5938 21.0729 21.3021 21.3438 21.7812C21.6146 22.2604 22.1667 22.5 23 22.5C23.5417 22.5 24.0625 22.3021 24.5625 21.9062C25.0625 21.4896 25.5208 20.9583 25.9375 20.3125C25.875 19.9792 25.8438 19.6354 25.8438 19.2812C25.8438 18.6146 25.8958 17.9688 26 17.3438C26.125 16.6979 26.2604 16.1042 26.4062 15.5625C26.5729 15 26.7396 14.5 26.9062 14.0625C27.0938 13.625 27.25 13.2812 27.375 13.0312C27.6042 12.5312 27.8125 12.2292 28 12.125C28.1875 12 28.4896 11.9271 28.9062 11.9062C29.0729 11.8854 29.2083 11.8854 29.3125 11.9062C29.4375 11.9062 29.5417 11.9167 29.625 11.9375C29.875 12 30 12.125 30 12.3125C30 12.6458 29.9792 13.1458 29.9375 13.8125C29.8958 14.4792 29.7708 15.1667 29.5625 15.875C29.4167 16.4583 29.2708 16.9583 29.125 17.375C29 17.7708 28.875 18.1146 28.75 18.4062C28.625 18.6771 28.5 18.9062 28.375 19.0938C28.25 19.2604 28.1354 19.4167 28.0312 19.5625C28.0729 20.1875 28.125 20.6875 28.1875 21.0625C28.25 21.4375 28.3229 21.7292 28.4062 21.9375C28.5104 22.125 28.625 22.2604 28.75 22.3438C28.8958 22.4062 29.0521 22.4375 29.2188 22.4375C29.5104 22.4375 29.8542 22.3021 30.25 22.0312C30.6458 21.7396 31.0521 21.3854 31.4688 20.9688C31.9062 20.5312 32.3333 20.0625 32.75 19.5625C33.1875 19.0417 33.5833 18.5521 33.9375 18.0938C34.2917 17.6354 34.5938 17.2396 34.8438 16.9062C35.0938 16.5521 35.25 16.3333 35.3125 16.25C35.4583 16.0625 35.5938 15.9479 35.7188 15.9062C35.8646 15.8646 35.9792 15.8854 36.0625 15.9688C36.1458 16.0312 36.1875 16.1458 36.1875 16.3125C36.2083 16.4583 36.1667 16.625 36.0625 16.8125C35.6458 17.6042 35.125 18.4479 34.5 19.3438C33.8958 20.2188 33.2396 21.0312 32.5312 21.7812C31.8438 22.5312 31.1458 23.1562 30.4375 23.6562C29.7292 24.1562 29.0625 24.4062 28.4375 24.4062C27.875 24.4062 27.4271 24.2188 27.0938 23.8438C26.7812 23.4479 26.5104 22.8854 26.2812 22.1562C25.8021 22.9062 25.2396 23.4896 24.5938 23.9062C23.9479 24.3021 23.2292 24.5 22.4375 24.5ZM33.0938 23.5C34.0104 19.6458 34.7396 16.5521 35.2812 14.2188C35.8438 11.8854 36.2708 10.1042 36.5625 8.875C36.8958 7.41667 37.125 6.40625 37.25 5.84375C37.3125 5.44792 37.3646 5.0625 37.4062 4.6875C37.4479 4.35417 37.4688 4.01042 37.4688 3.65625C37.4688 3.30208 37.4375 2.97917 37.375 2.6875C37.5417 2.58333 37.7188 2.5 37.9062 2.4375C38.1146 2.375 38.3125 2.32292 38.5 2.28125C38.7292 2.21875 38.9583 2.16667 39.1875 2.125C39.4167 2.08333 39.625 2.0625 39.8125 2.0625C39.9792 2.0625 40.1354 2.08333 40.2812 2.125C40.4271 2.14583 40.5208 2.20833 40.5625 2.3125C40.6875 2.41667 40.7396 2.625 40.7188 2.9375C40.7188 3.25 40.6979 3.57292 40.6562 3.90625C40.5729 4.30208 40.4792 4.72917 40.375 5.1875C40.125 6.08333 39.7812 7.375 39.3438 9.0625C38.9688 10.5 38.4583 12.4583 37.8125 14.9375C37.1875 17.4167 36.3958 20.5417 35.4375 24.3125C35.3333 24.4167 35.2083 24.4896 35.0625 24.5312C34.9167 24.5729 34.7812 24.5938 34.6562 24.5938C34.5104 24.5938 34.3542 24.5833 34.1875 24.5625C34.0417 24.5208 33.8958 24.4583 33.75 24.375C33.625 24.2917 33.5 24.1771 33.375 24.0312C33.25 23.9062 33.1562 23.7292 33.0938 23.5ZM47.4375 5.59375C47.375 5.82292 47.25 6.05208 47.0625 6.28125C46.8958 6.48958 46.6979 6.66667 46.4688 6.8125C46.2604 6.9375 46.0417 7.02083 45.8125 7.0625C45.5833 7.10417 45.3958 7.0625 45.25 6.9375C44.8125 6.60417 44.5833 6.25 44.5625 5.875C44.5417 5.47917 44.6354 5.11458 44.8438 4.78125C45.0521 4.42708 45.3125 4.13542 45.625 3.90625C45.9375 3.65625 46.2083 3.51042 46.4375 3.46875C46.6667 3.42708 46.8542 3.47917 47 3.625C47.1667 3.75 47.2917 3.92708 47.375 4.15625C47.4583 4.36458 47.5 4.60417 47.5 4.875C47.5208 5.14583 47.5 5.38542 47.4375 5.59375ZM43.125 12.25C43.2292 12.125 43.4271 12.0208 43.7188 11.9375C44.0104 11.8542 44.3125 11.7917 44.625 11.75C44.9375 11.6875 45.2188 11.6562 45.4688 11.6562C45.7396 11.6354 45.8958 11.6354 45.9375 11.6562C45.9583 11.6771 45.9062 11.8958 45.7812 12.3125C45.6562 12.7292 45.5 13.2188 45.3125 13.7812C45.125 14.3438 44.9271 14.9271 44.7188 15.5312C44.5104 16.1146 44.3542 16.5938 44.25 16.9688C44.1458 17.3438 44.0208 17.7708 43.875 18.25C43.7292 18.7083 43.5938 19.1667 43.4688 19.625C43.3646 20.0625 43.2917 20.4792 43.25 20.875C43.2083 21.2708 43.2396 21.5729 43.3438 21.7812C43.4479 22.0312 43.5625 22.2083 43.6875 22.3125C43.8125 22.3958 43.9479 22.4375 44.0938 22.4375C44.5104 22.4375 45.0312 22.2083 45.6562 21.75C46.3021 21.2917 46.9479 20.75 47.5938 20.125C48.2604 19.4792 48.875 18.8333 49.4375 18.1875C50 17.5208 50.4167 16.9896 50.6875 16.5938C50.8542 16.3854 51.0208 16.25 51.1875 16.1875C51.375 16.125 51.5208 16.1354 51.625 16.2188C51.75 16.3021 51.8125 16.4375 51.8125 16.625C51.8333 16.8125 51.7708 17.0312 51.625 17.2812C51.2917 17.8646 50.8021 18.5625 50.1562 19.375C49.5104 20.1667 48.8229 20.9375 48.0938 21.6875C47.3646 22.4167 46.6458 23.0417 45.9375 23.5625C45.25 24.0833 44.6875 24.3542 44.25 24.375C43.8958 24.3958 43.5417 24.3333 43.1875 24.1875C42.8542 24.0625 42.5417 23.8854 42.25 23.6562C41.9792 23.4062 41.75 23.125 41.5625 22.8125C41.375 22.4792 41.2708 22.1354 41.25 21.7812C41.1875 21.2604 41.1875 20.5521 41.25 19.6562C41.3125 18.7396 41.4271 17.8125 41.5938 16.875C41.7604 15.9167 41.9688 15.0104 42.2188 14.1562C42.4896 13.3021 42.7917 12.6667 43.125 12.25ZM58.625 24.7812C58.1458 24.7812 57.7292 24.6875 57.375 24.5C57.0417 24.3333 56.7708 24.1042 56.5625 23.8125C56.3542 23.5208 56.2188 23.1875 56.1562 22.8125C56.0938 22.4167 56.1146 22 56.2188 21.5625C56.2812 21.2708 56.3854 20.8854 56.5312 20.4062C56.6771 19.9062 56.8229 19.375 56.9688 18.8125C57.1354 18.2292 57.2812 17.6562 57.4062 17.0938C57.5521 16.5104 57.6458 15.9896 57.6875 15.5312C57.7292 15.0521 57.7083 14.6667 57.625 14.375C57.5417 14.0625 57.3646 13.9062 57.0938 13.9062C56.7604 13.9062 56.4167 14.0208 56.0625 14.25C55.7083 14.4583 55.3438 14.75 54.9688 15.125C54.6146 15.5 54.25 15.9375 53.875 16.4375C53.5208 16.9167 53.1667 17.4167 52.8125 17.9375C52.625 18.6458 52.4688 19.2708 52.3438 19.8125C52.2188 20.3333 52.1042 20.8125 52 21.25C51.9167 21.6667 51.8333 22.0417 51.75 22.375C51.6667 22.6875 51.5938 22.9896 51.5312 23.2812C51.4688 23.4896 51.2812 23.6979 50.9688 23.9062C50.6562 24.0938 50.3229 24.25 49.9688 24.375C49.6146 24.5 49.3125 24.5625 49.0625 24.5625C48.7917 24.5625 48.6771 24.4688 48.7188 24.2812C48.7396 24.1562 48.8125 23.875 48.9375 23.4375C49.0417 23 49.1771 22.4896 49.3438 21.9062C49.4896 21.3021 49.6458 20.6667 49.8125 20C49.9792 19.3333 50.1354 18.6979 50.2812 18.0938C50.3854 17.6146 50.5 17.0833 50.625 16.5C50.7292 16 50.8542 15.4167 51 14.75C51.1667 14.0833 51.3542 13.3542 51.5625 12.5625C51.7083 12.4375 51.8542 12.3438 52 12.2812C52.1667 12.1979 52.3333 12.1354 52.5 12.0938C52.6667 12.0312 52.8438 11.9896 53.0312 11.9688C53.1979 11.9688 53.3646 11.9792 53.5312 12C53.6771 12.0208 53.8229 12.0625 53.9688 12.125C54.1354 12.1667 54.2812 12.2396 54.4062 12.3438C54.3438 12.4896 54.2708 12.6979 54.1875 12.9688C54.1042 13.2188 54.0208 13.4896 53.9375 13.7812C53.8542 14.1146 53.75 14.4583 53.625 14.8125C53.8958 14.4375 54.1979 14.0625 54.5312 13.6875C54.8854 13.2917 55.2604 12.9375 55.6562 12.625C56.0729 12.3125 56.5104 12.0625 56.9688 11.875C57.4271 11.6667 57.8958 11.5625 58.375 11.5625C58.7708 11.5625 59.125 11.6771 59.4375 11.9062C59.75 12.1354 59.9896 12.4583 60.1562 12.875C60.3438 13.2708 60.4479 13.75 60.4688 14.3125C60.5104 14.875 60.4375 15.4896 60.25 16.1562L59.9062 17.5312C59.8021 17.9688 59.6667 18.4896 59.5 19.0938C59.3542 19.6771 59.1667 20.3229 58.9375 21.0312C58.8125 21.4896 58.7604 21.8854 58.7812 22.2188C58.8229 22.5521 59.0312 22.7188 59.4062 22.7188C59.7812 22.7188 60.25 22.4896 60.8125 22.0312C61.3958 21.5729 61.9792 21.0208 62.5625 20.375C63.1458 19.7292 63.6979 19.0729 64.2188 18.4062C64.7396 17.7188 65.1354 17.1667 65.4062 16.75C65.5938 16.4792 65.7708 16.3021 65.9375 16.2188C66.1042 16.1354 66.2292 16.125 66.3125 16.1875C66.4167 16.25 66.4688 16.3958 66.4688 16.625C66.4688 16.8333 66.3854 17.1042 66.2188 17.4375C66.0729 17.7292 65.8438 18.1146 65.5312 18.5938C65.2396 19.0729 64.8854 19.5833 64.4688 20.125C64.0521 20.6667 63.6042 21.2188 63.125 21.7812C62.6458 22.3229 62.1458 22.8229 61.625 23.2812C61.1042 23.7188 60.5833 24.0729 60.0625 24.3438C59.5625 24.6354 59.0833 24.7812 58.625 24.7812ZM80.1562 17.7812C79.8646 18.1979 79.4896 18.7188 79.0312 19.3438C78.5729 19.9479 78.0938 20.5625 77.5938 21.1875C77.1146 21.7917 76.6354 22.3542 76.1562 22.875C75.6979 23.375 75.3125 23.7292 75 23.9375C74.7917 24.0625 74.5521 24.1667 74.2812 24.25C74.0104 24.3333 73.7292 24.3854 73.4375 24.4062C73.1667 24.4271 72.9062 24.4062 72.6562 24.3438C72.4062 24.3021 72.1875 24.2188 72 24.0938C71.8125 23.9479 71.6562 23.7396 71.5312 23.4688C71.4271 23.2396 71.3229 22.9375 71.2188 22.5625C71.1354 22.1875 71.1042 21.7188 71.125 21.1562C70.625 21.9896 70.0729 22.6354 69.4688 23.0938C68.8646 23.5312 68.2917 23.8542 67.75 24.0625C67.125 24.2917 66.5 24.4271 65.875 24.4688C65.5833 24.4688 65.2708 24.3646 64.9375 24.1562C64.6042 23.9688 64.3229 23.6667 64.0938 23.25C63.8646 22.8125 63.7188 22.2604 63.6562 21.5938C63.5938 20.9062 63.6771 20.0938 63.9062 19.1562C64.1979 17.8854 64.6562 16.7292 65.2812 15.6875C65.9271 14.6458 66.625 13.7604 67.375 13.0312C68.125 12.2812 68.8646 11.7188 69.5938 11.3438C70.3229 10.9688 70.9271 10.8021 71.4062 10.8438C71.9688 10.9479 72.4271 11.1146 72.7812 11.3438C73.0729 11.5521 73.2604 11.8646 73.3438 12.2812C73.4479 12.6771 73.2812 13.2083 72.8438 13.875C73.1354 13.8125 73.375 13.7708 73.5625 13.75C73.7708 13.7292 73.9271 13.7188 74.0312 13.7188C74.1562 13.7188 74.2396 13.7292 74.2812 13.75C74.3021 13.7917 74.3125 13.8854 74.3125 14.0312C74.3125 14.1562 74.2812 14.3958 74.2188 14.75C74.1562 15.1042 74.0625 15.5833 73.9375 16.1875C73.8125 16.7917 73.6458 17.5729 73.4375 18.5312C73.3958 18.7188 73.3542 18.8958 73.3125 19.0625C73.2917 19.2083 73.2604 19.3646 73.2188 19.5312C73.1979 19.6771 73.1667 19.8542 73.125 20.0625C73.0833 20.2708 73.0312 20.5312 72.9688 20.8438C72.9479 21.0312 72.9375 21.2396 72.9375 21.4688C72.9583 21.6771 73 21.875 73.0625 22.0625C73.125 22.25 73.2188 22.4062 73.3438 22.5312C73.4896 22.6354 73.6875 22.6875 73.9375 22.6875C74.1458 22.6875 74.4167 22.5625 74.75 22.3125C75.0833 22.0417 75.4375 21.7083 75.8125 21.3125C76.1875 20.8958 76.5729 20.4479 76.9688 19.9688C77.3854 19.4688 77.7708 18.9896 78.125 18.5312C78.4792 18.0729 78.7917 17.6667 79.0625 17.3125C79.3542 16.9583 79.5625 16.6979 79.6875 16.5312C79.8542 16.3438 80.0208 16.2396 80.1875 16.2188C80.3542 16.1771 80.4792 16.2188 80.5625 16.3438C80.6458 16.4688 80.6562 16.6562 80.5938 16.9062C80.5521 17.1562 80.4062 17.4479 80.1562 17.7812ZM71 19.1562C71.1042 18.7396 71.2292 18.25 71.375 17.6875C71.5208 17.125 71.6458 16.5833 71.75 16.0625C71.8542 15.5417 71.9271 15.1146 71.9688 14.7812C72.0312 14.4271 72.0208 14.2604 71.9375 14.2812C71.8333 14.3021 71.7188 14.3333 71.5938 14.375C71.4896 14.4167 71.3542 14.4479 71.1875 14.4688C71.0208 14.4896 70.8542 14.5208 70.6875 14.5625C70.8542 14.2292 70.9479 13.9583 70.9688 13.75C71.0104 13.5208 71.0208 13.3438 71 13.2188C70.9792 13.0729 70.9375 12.9583 70.875 12.875C70.6458 12.6875 70.2396 12.8438 69.6562 13.3438C69.0938 13.8229 68.4375 14.7188 67.6875 16.0312C67.375 16.5729 67.125 17.1562 66.9375 17.7812C66.75 18.3854 66.6146 18.9583 66.5312 19.5C66.4688 20.0417 66.4583 20.5208 66.5 20.9375C66.5417 21.3333 66.625 21.5938 66.75 21.7188C66.9792 21.9479 67.2396 22.0625 67.5312 22.0625C67.8229 22.0417 68.1146 21.9583 68.4062 21.8125C68.7188 21.6458 69.0208 21.4375 69.3125 21.1875C69.625 20.9375 69.8958 20.6771 70.125 20.4062C70.375 20.1354 70.5729 19.8854 70.7188 19.6562C70.8854 19.4271 70.9792 19.2604 71 19.1562ZM76.875 23.8438C76.7292 24.0729 76.5729 24.2188 76.4062 24.2812C76.2188 24.3646 76.0625 24.375 75.9375 24.3125C75.7917 24.2708 75.6979 24.1667 75.6562 24C75.6146 23.8333 75.6562 23.625 75.7812 23.375C75.8438 23.25 75.9896 22.9688 76.2188 22.5312C76.4271 22.0938 76.6875 21.5729 77 20.9688C77.2917 20.3438 77.6146 19.6771 77.9688 18.9688C78.3229 18.2396 78.6562 17.5521 78.9688 16.9062C79.3021 16.2604 79.6042 15.6875 79.875 15.1875C80.1458 14.6667 80.3438 14.2917 80.4688 14.0625C80.2396 13.8542 80.0833 13.7083 80 13.625C79.9167 13.5208 79.8542 13.3125 79.8125 13C79.7708 12.7292 79.8333 12.375 80 11.9375C80.1667 11.5 80.3854 11.0833 80.6562 10.6875C80.9271 10.2708 81.2292 9.91667 81.5625 9.625C81.8958 9.33333 82.2188 9.1875 82.5312 9.1875C83.1146 9.1875 83.5208 9.375 83.75 9.75C84 10.125 84.1458 10.5104 84.1875 10.9062C84.2292 11.1771 84.2083 11.5208 84.125 11.9375C84.0417 12.3542 83.8854 12.7292 83.6562 13.0625C83.7188 13.1042 83.8021 13.1562 83.9062 13.2188C84.0104 13.2604 84.1771 13.2812 84.4062 13.2812C84.7396 13.2812 84.9688 13.2604 85.0938 13.2188C85.2396 13.1771 85.4583 13.1562 85.75 13.1562C86.1042 13.1562 86.3958 13.25 86.625 13.4375C86.8542 13.6042 87.0417 13.8229 87.1875 14.0938C87.3333 14.3438 87.4375 14.625 87.5 14.9375C87.5833 15.2292 87.6354 15.5 87.6562 15.75C87.7188 16.2708 87.5833 16.8125 87.25 17.375C86.9167 17.9375 86.5104 18.5521 86.0312 19.2188C85.7396 19.6354 85.4479 20.1042 85.1562 20.625C84.8646 21.1458 84.7396 21.6146 84.7812 22.0312C84.8229 22.3021 84.8958 22.5208 85 22.6875C85.1042 22.8542 85.3958 22.9375 85.875 22.9375C86.2292 22.9375 86.6146 22.8125 87.0312 22.5625C87.4688 22.2917 87.9062 21.9583 88.3438 21.5625C88.8021 21.1458 89.25 20.6979 89.6875 20.2188C90.125 19.7188 90.5312 19.2396 90.9062 18.7812C91.2812 18.3021 91.5938 17.875 91.8438 17.5C92.1146 17.125 92.3125 16.8542 92.4375 16.6875C92.5417 16.5208 92.6771 16.4062 92.8438 16.3438C93.0104 16.2812 93.1562 16.2812 93.2812 16.3438C93.4062 16.4062 93.4792 16.5312 93.5 16.7188C93.5417 16.9062 93.4688 17.1562 93.2812 17.4688C93.1562 17.6771 92.9375 18.0104 92.625 18.4688C92.3333 18.9271 91.9688 19.4375 91.5312 20C91.1146 20.5625 90.6458 21.1458 90.125 21.75C89.6042 22.3333 89.0521 22.875 88.4688 23.375C87.9062 23.8542 87.3333 24.25 86.75 24.5625C86.1875 24.875 85.6458 25.0312 85.125 25.0312C84.5833 25.0312 84.1354 24.9271 83.7812 24.7188C83.4271 24.5104 83.1354 24.2604 82.9062 23.9688C82.6979 23.6562 82.5417 23.3229 82.4375 22.9688C82.3542 22.5938 82.3229 22.25 82.3438 21.9375C82.3646 21.6875 82.4271 21.4271 82.5312 21.1562C82.6562 20.8646 82.7917 20.5729 82.9375 20.2812C83.1042 19.9688 83.2708 19.6667 83.4375 19.375C83.625 19.0625 83.7917 18.7604 83.9375 18.4688C84.2917 17.8646 84.5729 17.3542 84.7812 16.9375C85.0104 16.5 85.125 16.1354 85.125 15.8438C85.125 15.6562 85.0833 15.4896 85 15.3438C84.9167 15.1979 84.7812 15.125 84.5938 15.125C84.4688 15.125 84.375 15.1354 84.3125 15.1562C84.2708 15.1562 84.2188 15.1562 84.1562 15.1562C84.1146 15.1562 84.0417 15.1667 83.9375 15.1875C83.8542 15.1875 83.7188 15.1875 83.5312 15.1875C83.2604 15.1875 83.0312 15.1458 82.8438 15.0625C82.6562 14.9792 82.4792 14.9167 82.3125 14.875C82.2292 15.0208 82.0417 15.3333 81.75 15.8125C81.4583 16.2917 81.1146 16.8542 80.7188 17.5C80.3438 18.1458 79.9375 18.8229 79.5 19.5312C79.0833 20.2396 78.6875 20.9062 78.3125 21.5312C77.9375 22.1354 77.625 22.6562 77.375 23.0938C77.1042 23.5104 76.9375 23.7604 76.875 23.8438ZM99.2812 12.5C99.5521 12.2917 99.8125 12.1354 100.062 12.0312C100.333 11.9062 100.573 11.8229 100.781 11.7812C101.01 11.7188 101.24 11.6979 101.469 11.7188C102.031 11.7604 102.375 11.9375 102.5 12.25C102.646 12.5625 102.667 13.0625 102.562 13.75C102.5 14.1042 102.375 14.5521 102.188 15.0938C102 15.6354 101.781 16.3021 101.531 17.0938C101.281 17.8646 101.01 18.75 100.719 19.75C100.448 20.75 100.188 21.875 99.9375 23.125C99.6875 24.1458 99.4167 25.3229 99.125 26.6562C98.875 27.8229 98.5729 29.2292 98.2188 30.875C97.8854 32.5208 97.5208 34.4062 97.125 36.5312C97.0208 37.0521 96.7917 37.3542 96.4375 37.4375C96.1042 37.5208 95.75 37.4792 95.375 37.3125C95.2292 37.2292 95.0938 37.1354 94.9688 37.0312C94.8646 36.9271 94.75 36.8021 94.625 36.6562C94.5 36.5312 94.3958 36.3542 94.3125 36.125C94.7917 34.375 95.2083 32.7812 95.5625 31.3438C95.9375 29.9062 96.2708 28.6562 96.5625 27.5938C96.875 26.3646 97.1667 25.2604 97.4375 24.2812C97.5417 23.8438 97.6354 23.4167 97.7188 23C97.8229 22.5625 97.9271 22.1354 98.0312 21.7188C97.7604 22.1562 97.4688 22.5729 97.1562 22.9688C96.8438 23.3646 96.5 23.7083 96.125 24C95.75 24.2917 95.3438 24.5104 94.9062 24.6562C94.4896 24.8229 94.0521 24.875 93.5938 24.8125C92.4688 24.6667 91.6667 24.25 91.1875 23.5625C90.7292 22.875 90.5312 21.9792 90.5938 20.875C90.6146 20.4375 90.6771 19.9583 90.7812 19.4375C90.8854 18.9167 91 18.4167 91.125 17.9375C91.25 17.4583 91.3646 17.0312 91.4688 16.6562C91.5938 16.2604 91.6875 15.9792 91.75 15.8125C92 15.0208 92.1771 14.3438 92.2812 13.7812C92.4062 13.2188 92.3229 12.75 92.0312 12.375C92.3229 12.1875 92.5938 12.0625 92.8438 12C93.1146 11.9167 93.3542 11.8542 93.5625 11.8125C93.7917 11.7917 94.0208 11.7917 94.25 11.8125C94.8125 11.8958 95.1354 12.1042 95.2188 12.4375C95.3229 12.7708 95.2917 13.2708 95.125 13.9375C95.0417 14.2917 94.9062 14.75 94.7188 15.3125C94.5312 15.8542 94.3333 16.4167 94.125 17C93.9167 17.5833 93.7292 18.125 93.5625 18.625C93.3958 19.1042 93.3021 19.4479 93.2812 19.6562C93.0938 20.5938 93.0833 21.3229 93.25 21.8438C93.4167 22.3438 93.7812 22.5938 94.3438 22.5938C94.6146 22.5938 94.9167 22.4792 95.25 22.25C95.5833 22 95.9167 21.6771 96.25 21.2812C96.6042 20.8854 96.9479 20.4375 97.2812 19.9375C97.6146 19.4167 97.9167 18.8958 98.1875 18.375C98.4792 17.8542 98.7292 17.3438 98.9375 16.8438C99.1667 16.3438 99.3333 15.8958 99.4375 15.5C99.5833 14.7292 99.6771 14.125 99.7188 13.6875C99.7604 13.25 99.6146 12.8542 99.2812 12.5ZM129.062 17.7812C128.583 18.5729 128.031 19.3958 127.406 20.25C126.802 21.0833 126.156 21.8542 125.469 22.5625C124.781 23.25 124.073 23.8229 123.344 24.2812C122.615 24.7396 121.885 24.9688 121.156 24.9688C120.427 24.9688 119.896 24.7188 119.562 24.2188C119.25 23.7396 119.104 23.1979 119.125 22.5938C119.125 22.3229 119.146 22.0833 119.188 21.875C119.25 21.6667 119.312 21.4792 119.375 21.3125C119.438 21.1458 119.5 20.9792 119.562 20.8125C119.646 20.625 119.719 20.4167 119.781 20.1875C119.865 19.9167 119.865 19.6771 119.781 19.4688C119.719 19.2396 119.635 19.0417 119.531 18.875C119.344 19.0833 119.125 19.2708 118.875 19.4375C118.646 19.5833 118.354 19.6562 118 19.6562C117.75 19.6562 117.521 19.5417 117.312 19.3125C117.104 19.0625 117 18.7604 117 18.4062C117 18.1146 117.062 17.875 117.188 17.6875C117.333 17.5 117.49 17.3542 117.656 17.25C117.844 17.1458 118.031 17.0729 118.219 17.0312C118.406 16.9896 118.562 16.9688 118.688 16.9688C118.75 16.9688 118.875 16.9792 119.062 17C119.271 17.0208 119.49 17.0521 119.719 17.0938C120.469 16.4896 121 15.9479 121.312 15.4688C121.646 14.9688 121.677 14.5208 121.406 14.125C121.24 13.8542 121.031 13.7188 120.781 13.7188C120.531 13.6979 120.271 13.7604 120 13.9062C119.729 14.0312 119.458 14.1979 119.188 14.4062C118.938 14.6146 118.708 14.8125 118.5 15C118.083 15.4167 117.615 15.9167 117.094 16.5C116.594 17.0625 116.177 17.5312 115.844 17.9062C115.698 18.5312 115.552 19.1875 115.406 19.875C115.281 20.4792 115.135 21.1667 114.969 21.9375C114.823 22.6875 114.667 23.4688 114.5 24.2812C114.375 24.3438 114.24 24.3854 114.094 24.4062C113.969 24.4479 113.854 24.4792 113.75 24.5C113.625 24.5208 113.5 24.5312 113.375 24.5312C113.208 24.5312 113.052 24.5208 112.906 24.5C112.76 24.5 112.646 24.4479 112.562 24.3438C112.458 24.2604 112.406 24.1146 112.406 23.9062C112.385 23.6979 112.438 23.4062 112.562 23.0312C112.729 22.4896 112.938 21.7708 113.188 20.875C113.438 19.9583 113.698 18.9583 113.969 17.875C114.24 16.7917 114.51 15.6667 114.781 14.5C115.073 13.3125 115.344 12.1875 115.594 11.125C115.844 10.0417 116.052 9.07292 116.219 8.21875C116.406 7.34375 116.542 6.65625 116.625 6.15625C116.688 5.61458 116.75 5.09375 116.812 4.59375C116.854 4.17708 116.875 3.77083 116.875 3.375C116.896 2.95833 116.875 2.64583 116.812 2.4375C116.917 2.33333 117.062 2.23958 117.25 2.15625C117.438 2.07292 117.646 2.01042 117.875 1.96875C118.104 1.90625 118.375 1.85417 118.688 1.8125C119.042 1.77083 119.333 1.76042 119.562 1.78125C119.812 1.80208 119.99 1.90625 120.094 2.09375C120.219 2.30208 120.24 2.65625 120.156 3.15625C120.094 3.63542 119.948 4.3125 119.719 5.1875C119.427 6.3125 119.125 7.34375 118.812 8.28125C118.521 9.19792 118.229 10.0625 117.938 10.875C117.667 11.6875 117.396 12.4792 117.125 13.25C116.875 14 116.646 14.7708 116.438 15.5625C116.854 14.9583 117.375 14.3229 118 13.6562C118.625 12.9688 119.333 12.4062 120.125 11.9688C120.958 11.5312 121.646 11.3125 122.188 11.3125C122.854 11.3125 123.333 11.5417 123.625 12C123.917 12.4375 124.052 12.9583 124.031 13.5625C124.01 14.0417 123.885 14.4896 123.656 14.9062C123.448 15.3021 123.188 15.6771 122.875 16.0312C122.562 16.3646 122.229 16.6562 121.875 16.9062C121.521 17.1562 121.219 17.3646 120.969 17.5312C121.26 17.6979 121.51 17.9271 121.719 18.2188C121.948 18.4896 122.052 18.8333 122.031 19.25C122.01 19.8125 121.896 20.3125 121.688 20.75C121.5 21.1667 121.406 21.5521 121.406 21.9062C121.427 22.1771 121.479 22.375 121.562 22.5C121.667 22.625 121.875 22.6875 122.188 22.6875C122.75 22.6875 123.333 22.4479 123.938 21.9688C124.562 21.4896 125.146 20.9375 125.688 20.3125C126.229 19.6875 126.729 19.0729 127.188 18.4688C127.646 17.8438 128 17.3854 128.25 17.0938C128.604 16.7188 128.896 16.625 129.125 16.8125C129.375 16.9792 129.354 17.3021 129.062 17.7812ZM134 5.59375C133.938 5.82292 133.812 6.05208 133.625 6.28125C133.458 6.48958 133.26 6.66667 133.031 6.8125C132.823 6.9375 132.604 7.02083 132.375 7.0625C132.146 7.10417 131.958 7.0625 131.812 6.9375C131.375 6.60417 131.146 6.25 131.125 5.875C131.104 5.47917 131.198 5.11458 131.406 4.78125C131.615 4.42708 131.875 4.13542 132.188 3.90625C132.5 3.65625 132.771 3.51042 133 3.46875C133.229 3.42708 133.417 3.47917 133.562 3.625C133.729 3.75 133.854 3.92708 133.938 4.15625C134.021 4.36458 134.062 4.60417 134.062 4.875C134.083 5.14583 134.062 5.38542 134 5.59375ZM129.688 12.25C129.792 12.125 129.99 12.0208 130.281 11.9375C130.573 11.8542 130.875 11.7917 131.188 11.75C131.5 11.6875 131.781 11.6562 132.031 11.6562C132.302 11.6354 132.458 11.6354 132.5 11.6562C132.521 11.6771 132.469 11.8958 132.344 12.3125C132.219 12.7292 132.062 13.2188 131.875 13.7812C131.688 14.3438 131.49 14.9271 131.281 15.5312C131.073 16.1146 130.917 16.5938 130.812 16.9688C130.708 17.3438 130.583 17.7708 130.438 18.25C130.292 18.7083 130.156 19.1667 130.031 19.625C129.927 20.0625 129.854 20.4792 129.812 20.875C129.771 21.2708 129.802 21.5729 129.906 21.7812C130.01 22.0312 130.125 22.2083 130.25 22.3125C130.375 22.3958 130.51 22.4375 130.656 22.4375C131.073 22.4375 131.594 22.2083 132.219 21.75C132.865 21.2917 133.51 20.75 134.156 20.125C134.823 19.4792 135.438 18.8333 136 18.1875C136.562 17.5208 136.979 16.9896 137.25 16.5938C137.417 16.3854 137.583 16.25 137.75 16.1875C137.938 16.125 138.083 16.1354 138.188 16.2188C138.312 16.3021 138.375 16.4375 138.375 16.625C138.396 16.8125 138.333 17.0312 138.188 17.2812C137.854 17.8646 137.365 18.5625 136.719 19.375C136.073 20.1667 135.385 20.9375 134.656 21.6875C133.927 22.4167 133.208 23.0417 132.5 23.5625C131.812 24.0833 131.25 24.3542 130.812 24.375C130.458 24.3958 130.104 24.3333 129.75 24.1875C129.417 24.0625 129.104 23.8854 128.812 23.6562C128.542 23.4062 128.312 23.125 128.125 22.8125C127.938 22.4792 127.833 22.1354 127.812 21.7812C127.75 21.2604 127.75 20.5521 127.812 19.6562C127.875 18.7396 127.99 17.8125 128.156 16.875C128.323 15.9167 128.531 15.0104 128.781 14.1562C129.052 13.3021 129.354 12.6667 129.688 12.25ZM147.438 16.0938C147.521 15.9688 147.625 15.8958 147.75 15.875C147.896 15.8333 148.01 15.8438 148.094 15.9062C148.177 15.9688 148.219 16.0729 148.219 16.2188C148.24 16.3646 148.188 16.5625 148.062 16.8125C147.646 17.6042 147.094 18.4583 146.406 19.375C145.74 20.2917 145.031 21.1562 144.281 21.9688C143.531 22.7604 142.802 23.4167 142.094 23.9375C141.385 24.4583 140.792 24.7188 140.312 24.7188C139.625 24.7188 139.052 24.5833 138.594 24.3125C138.135 24.0417 137.771 23.7083 137.5 23.3125C137.25 22.9167 137.073 22.4896 136.969 22.0312C136.865 21.5521 136.833 21.1146 136.875 20.7188C136.896 20.3854 136.969 19.7917 137.094 18.9375C137.219 18.0625 137.385 17.0625 137.594 15.9375C137.802 14.7917 138.031 13.5729 138.281 12.2812C138.552 10.9688 138.833 9.70833 139.125 8.5C138.771 8.54167 138.417 8.58333 138.062 8.625C137.708 8.66667 137.385 8.6875 137.094 8.6875C136.427 8.6875 135.802 8.61458 135.219 8.46875C134.615 8.30208 134.167 8.14583 133.875 8C133.708 7.91667 133.635 7.80208 133.656 7.65625C133.677 7.48958 133.74 7.33333 133.844 7.1875C133.948 7.02083 134.083 6.88542 134.25 6.78125C134.396 6.65625 134.531 6.59375 134.656 6.59375C135.052 6.63542 135.479 6.67708 135.938 6.71875C136.396 6.73958 136.896 6.73958 137.438 6.71875C137.833 6.69792 138.208 6.66667 138.562 6.625C138.938 6.58333 139.302 6.53125 139.656 6.46875C139.927 5.46875 140.188 4.60417 140.438 3.875C140.708 3.125 140.948 2.60417 141.156 2.3125C141.219 2.20833 141.354 2.125 141.562 2.0625C141.792 1.97917 142.031 1.92708 142.281 1.90625C142.531 1.86458 142.771 1.86458 143 1.90625C143.229 1.92708 143.396 2 143.5 2.125C143.604 2.29167 143.646 2.71875 143.625 3.40625C143.604 4.09375 143.49 4.96875 143.281 6.03125C144.156 6.03125 144.927 6.08333 145.594 6.1875C146.281 6.27083 146.865 6.375 147.344 6.5C147.823 6.60417 148.208 6.71875 148.5 6.84375C148.792 6.94792 149.01 7.02083 149.156 7.0625C149.302 7.10417 149.375 7.20833 149.375 7.375C149.396 7.54167 149.365 7.71875 149.281 7.90625C149.219 8.07292 149.104 8.21875 148.938 8.34375C148.771 8.46875 148.583 8.51042 148.375 8.46875C148.167 8.44792 147.927 8.40625 147.656 8.34375C147.406 8.28125 147.094 8.22917 146.719 8.1875C146.365 8.14583 145.938 8.10417 145.438 8.0625C144.938 8.02083 144.354 8 143.688 8C143.562 8 143.417 8.01042 143.25 8.03125C143.104 8.03125 142.948 8.03125 142.781 8.03125C142.698 8.36458 142.615 8.69792 142.531 9.03125C142.469 9.34375 142.375 9.67708 142.25 10.0312C141.979 10.8646 141.667 11.7708 141.312 12.75C141 13.6042 140.625 14.5833 140.188 15.6875C139.75 16.7917 139.26 17.9688 138.719 19.2188C138.594 20.1146 138.604 20.8021 138.75 21.2812C138.917 21.7396 139.115 22.0729 139.344 22.2812C139.615 22.5104 139.948 22.6354 140.344 22.6562C140.656 22.6979 141.031 22.5938 141.469 22.3438C141.927 22.0729 142.396 21.7188 142.875 21.2812C143.354 20.8438 143.833 20.3646 144.312 19.8438C144.812 19.3229 145.271 18.8125 145.688 18.3125C146.104 17.8125 146.469 17.3646 146.781 16.9688C147.094 16.5521 147.312 16.2604 147.438 16.0938ZM150.875 22.9375C151.521 22.9375 152.229 22.6875 153 22.1875C153.792 21.6667 154.552 21.0625 155.281 20.375C156.031 19.6875 156.708 18.9896 157.312 18.2812C157.938 17.5521 158.406 16.9688 158.719 16.5312C158.906 16.2604 159.083 16.1042 159.25 16.0625C159.417 16 159.542 16.0208 159.625 16.125C159.708 16.2292 159.74 16.3958 159.719 16.625C159.698 16.8333 159.604 17.0729 159.438 17.3438C159.292 17.5938 159.042 17.9583 158.688 18.4375C158.354 18.8958 157.948 19.4062 157.469 19.9688C157.01 20.5104 156.479 21.0729 155.875 21.6562C155.292 22.2188 154.677 22.7396 154.031 23.2188C153.385 23.6771 152.719 24.0521 152.031 24.3438C151.344 24.6562 150.667 24.8125 150 24.8125C149.083 24.8125 148.312 24.6354 147.688 24.2812C147.083 23.9479 146.594 23.5104 146.219 22.9688C145.865 22.4271 145.615 21.8333 145.469 21.1875C145.323 20.5208 145.25 19.8646 145.25 19.2188C145.25 18.5729 145.396 17.7708 145.688 16.8125C145.979 15.8542 146.406 14.9375 146.969 14.0625C147.552 13.1667 148.281 12.4062 149.156 11.7812C150.031 11.1354 151.062 10.8125 152.25 10.8125C152.917 10.8125 153.479 11.0417 153.938 11.5C154.417 11.9583 154.646 12.5833 154.625 13.375C154.625 13.75 154.562 14.125 154.438 14.5C154.312 14.8542 154.146 15.1771 153.938 15.4688C153.729 15.7396 153.479 15.9583 153.188 16.125C152.917 16.2917 152.615 16.375 152.281 16.375C152.01 16.375 151.802 16.2812 151.656 16.0938C151.531 15.8854 151.448 15.6562 151.406 15.4062C151.385 15.1354 151.385 14.875 151.406 14.625C151.448 14.375 151.49 14.2083 151.531 14.125C151.635 13.9792 151.75 13.875 151.875 13.8125C152 13.75 152.146 13.6771 152.312 13.5938C152.438 13.5312 152.531 13.4375 152.594 13.3125C152.677 13.1875 152.719 13.0521 152.719 12.9062C152.719 12.7604 152.677 12.6354 152.594 12.5312C152.51 12.4271 152.375 12.375 152.188 12.375C152 12.375 151.656 12.5312 151.156 12.8438C150.677 13.1354 150.177 13.5833 149.656 14.1875C149.156 14.7708 148.708 15.5104 148.312 16.4062C147.917 17.3021 147.708 18.3438 147.688 19.5312C147.667 20.2188 147.76 20.7812 147.969 21.2188C148.177 21.6562 148.438 22 148.75 22.25C149.062 22.5 149.406 22.6771 149.781 22.7812C150.156 22.8854 150.521 22.9375 150.875 22.9375ZM173.312 17.125C173.458 16.9583 173.604 16.875 173.75 16.875C173.917 16.8542 174.042 16.8958 174.125 17C174.229 17.0833 174.271 17.2188 174.25 17.4062C174.25 17.5938 174.167 17.8021 174 18.0312C173.604 18.5729 173.146 19.1354 172.625 19.7188C172.104 20.2812 171.542 20.8333 170.938 21.375C170.354 21.9167 169.76 22.4271 169.156 22.9062C168.552 23.3854 167.969 23.7812 167.406 24.0938C166.781 24.4479 166.25 24.625 165.812 24.625C165.396 24.625 164.979 24.3542 164.562 23.8125C164.188 23.3333 164 22.8229 164 22.2812C164.021 21.7188 164.146 21.0208 164.375 20.1875C164.521 19.6667 164.719 19.0521 164.969 18.3438C165.24 17.6146 165.448 16.9167 165.594 16.25C165.76 15.5833 165.812 15.0208 165.75 14.5625C165.688 14.0833 165.417 13.8438 164.938 13.8438C164.604 13.8438 164.24 13.9583 163.844 14.1875C163.469 14.4167 163.083 14.7188 162.688 15.0938C162.312 15.4479 161.948 15.8542 161.594 16.3125C161.24 16.7708 160.927 17.2188 160.656 17.6562C160.49 18.4688 160.323 19.2708 160.156 20.0625C160.01 20.7292 159.854 21.4583 159.688 22.25C159.542 23.0208 159.396 23.7083 159.25 24.3125C159.125 24.4167 158.99 24.4896 158.844 24.5312C158.698 24.5729 158.562 24.5938 158.438 24.5938C158.292 24.5938 158.146 24.5833 158 24.5625C157.833 24.5208 157.677 24.4583 157.531 24.375C157.406 24.2917 157.281 24.1771 157.156 24.0312C157.031 23.9062 156.938 23.7292 156.875 23.5C157.812 19.6458 158.552 16.5521 159.094 14.2188C159.635 11.8854 160.052 10.1042 160.344 8.875C160.677 7.41667 160.906 6.40625 161.031 5.84375C161.094 5.44792 161.146 5.0625 161.188 4.6875C161.229 4.35417 161.25 4.01042 161.25 3.65625C161.25 3.30208 161.219 2.97917 161.156 2.6875C161.323 2.58333 161.5 2.5 161.688 2.4375C161.896 2.375 162.094 2.32292 162.281 2.28125C162.51 2.21875 162.74 2.16667 162.969 2.125C163.198 2.08333 163.406 2.0625 163.594 2.0625C163.76 2.0625 163.917 2.08333 164.062 2.125C164.208 2.14583 164.302 2.20833 164.344 2.3125C164.469 2.41667 164.521 2.625 164.5 2.9375C164.5 3.25 164.479 3.57292 164.438 3.90625C164.354 4.30208 164.26 4.72917 164.156 5.1875C163.719 6.875 163.229 8.52083 162.688 10.125C162.146 11.7083 161.646 13.4062 161.188 15.2188C161.458 14.8021 161.781 14.375 162.156 13.9375C162.531 13.5 162.938 13.1042 163.375 12.75C163.833 12.375 164.312 12.0729 164.812 11.8438C165.312 11.5938 165.844 11.4688 166.406 11.4688C166.698 11.4688 166.969 11.5208 167.219 11.625C167.49 11.7083 167.719 11.8646 167.906 12.0938C168.115 12.3021 168.271 12.5938 168.375 12.9688C168.479 13.3229 168.521 13.7708 168.5 14.3125C168.5 14.6458 168.458 14.9896 168.375 15.3438C168.312 15.6979 168.219 16.0938 168.094 16.5312C167.969 16.9479 167.802 17.4167 167.594 17.9375C167.406 18.4583 167.177 19.0625 166.906 19.75C166.719 20.2292 166.573 20.6354 166.469 20.9688C166.365 21.3021 166.385 21.5938 166.531 21.8438C166.719 22.1771 167.083 22.2604 167.625 22.0938C168.188 21.9062 169.021 21.3646 170.125 20.4688C170.375 20.2604 170.656 20 170.969 19.6875C171.281 19.375 171.583 19.0625 171.875 18.75C172.167 18.4167 172.438 18.1042 172.688 17.8125C172.938 17.5208 173.146 17.2917 173.312 17.125ZM186.25 17.5C185.625 18.4167 184.917 19.3125 184.125 20.1875C183.333 21.0417 182.49 21.8125 181.594 22.5C180.719 23.1667 179.812 23.7083 178.875 24.125C177.958 24.5417 177.062 24.75 176.188 24.75C175.729 24.75 175.229 24.6354 174.688 24.4062C174.167 24.1979 173.688 23.8646 173.25 23.4062C172.812 22.9479 172.458 22.3542 172.188 21.625C171.938 20.8958 171.865 20.0104 171.969 18.9688C172.052 18.1146 172.312 17.2188 172.75 16.2812C173.208 15.3229 173.76 14.4479 174.406 13.6562C175.073 12.8646 175.812 12.2083 176.625 11.6875C177.458 11.1667 178.292 10.9062 179.125 10.9062C179.917 10.9062 180.49 11.1042 180.844 11.5C181.198 11.8958 181.354 12.3854 181.312 12.9688C181.25 13.6146 181.062 14.2083 180.75 14.75C180.458 15.2917 180.104 15.7812 179.688 16.2188C179.271 16.6562 178.823 17.0521 178.344 17.4062C177.885 17.7604 177.448 18.0833 177.031 18.375C176.573 18.6875 176.135 18.9896 175.719 19.2812C175.302 19.5521 174.938 19.8021 174.625 20.0312C174.646 20.5521 174.74 20.9896 174.906 21.3438C175.073 21.6979 175.281 21.9896 175.531 22.2188C175.781 22.4271 176.062 22.5833 176.375 22.6875C176.708 22.7708 177.042 22.8125 177.375 22.8125C178.083 22.8125 178.823 22.5938 179.594 22.1562C180.365 21.6979 181.115 21.1562 181.844 20.5312C182.594 19.8854 183.281 19.2188 183.906 18.5312C184.552 17.8438 185.083 17.25 185.5 16.75C185.646 16.5833 185.792 16.4896 185.938 16.4688C186.104 16.4271 186.229 16.4479 186.312 16.5312C186.417 16.5938 186.469 16.7188 186.469 16.9062C186.469 17.0729 186.396 17.2708 186.25 17.5ZM178.25 12.6875C178 12.6875 177.698 12.8125 177.344 13.0625C177.01 13.3125 176.677 13.6771 176.344 14.1562C176.01 14.6146 175.698 15.1875 175.406 15.875C175.115 16.5417 174.896 17.3125 174.75 18.1875C175 18 175.271 17.8125 175.562 17.625C175.854 17.4167 176.146 17.1979 176.438 16.9688C177.333 16.2812 177.958 15.6771 178.312 15.1562C178.667 14.6354 178.865 14.1875 178.906 13.8125C178.948 13.4167 178.906 13.1354 178.781 12.9688C178.656 12.7812 178.479 12.6875 178.25 12.6875ZM193.281 24.7812C192.802 24.7812 192.385 24.6875 192.031 24.5C191.698 24.3333 191.427 24.1042 191.219 23.8125C191.01 23.5208 190.875 23.1875 190.812 22.8125C190.75 22.4167 190.771 22 190.875 21.5625C190.938 21.2708 191.042 20.8854 191.188 20.4062C191.333 19.9062 191.479 19.375 191.625 18.8125C191.792 18.2292 191.938 17.6562 192.062 17.0938C192.208 16.5104 192.302 15.9896 192.344 15.5312C192.385 15.0521 192.365 14.6667 192.281 14.375C192.198 14.0625 192.021 13.9062 191.75 13.9062C191.417 13.9062 191.073 14.0208 190.719 14.25C190.365 14.4583 190 14.75 189.625 15.125C189.271 15.5 188.906 15.9375 188.531 16.4375C188.177 16.9167 187.823 17.4167 187.469 17.9375C187.281 18.6458 187.125 19.2708 187 19.8125C186.875 20.3333 186.76 20.8125 186.656 21.25C186.573 21.6667 186.49 22.0417 186.406 22.375C186.323 22.6875 186.25 22.9896 186.188 23.2812C186.125 23.4896 185.938 23.6979 185.625 23.9062C185.312 24.0938 184.979 24.25 184.625 24.375C184.271 24.5 183.969 24.5625 183.719 24.5625C183.448 24.5625 183.333 24.4688 183.375 24.2812C183.396 24.1562 183.469 23.875 183.594 23.4375C183.698 23 183.833 22.4896 184 21.9062C184.146 21.3021 184.302 20.6667 184.469 20C184.635 19.3333 184.792 18.6979 184.938 18.0938C185.042 17.6146 185.156 17.0833 185.281 16.5C185.385 16 185.51 15.4167 185.656 14.75C185.823 14.0833 186.01 13.3542 186.219 12.5625C186.365 12.4375 186.51 12.3438 186.656 12.2812C186.823 12.1979 186.99 12.1354 187.156 12.0938C187.323 12.0312 187.5 11.9896 187.688 11.9688C187.854 11.9688 188.021 11.9792 188.188 12C188.333 12.0208 188.479 12.0625 188.625 12.125C188.792 12.1667 188.938 12.2396 189.062 12.3438C189 12.4896 188.927 12.6979 188.844 12.9688C188.76 13.2188 188.677 13.4896 188.594 13.7812C188.51 14.1146 188.406 14.4583 188.281 14.8125C188.552 14.4375 188.854 14.0625 189.188 13.6875C189.542 13.2917 189.917 12.9375 190.312 12.625C190.729 12.3125 191.167 12.0625 191.625 11.875C192.083 11.6667 192.552 11.5625 193.031 11.5625C193.427 11.5625 193.781 11.6771 194.094 11.9062C194.406 12.1354 194.646 12.4583 194.812 12.875C195 13.2708 195.104 13.75 195.125 14.3125C195.167 14.875 195.094 15.4896 194.906 16.1562L194.562 17.5312C194.458 17.9688 194.323 18.4896 194.156 19.0938C194.01 19.6771 193.823 20.3229 193.594 21.0312C193.469 21.4896 193.417 21.8854 193.438 22.2188C193.479 22.5521 193.688 22.7188 194.062 22.7188C194.438 22.7188 194.906 22.4896 195.469 22.0312C196.052 21.5729 196.635 21.0208 197.219 20.375C197.802 19.7292 198.354 19.0729 198.875 18.4062C199.396 17.7188 199.792 17.1667 200.062 16.75C200.25 16.4792 200.427 16.3021 200.594 16.2188C200.76 16.1354 200.885 16.125 200.969 16.1875C201.073 16.25 201.125 16.3958 201.125 16.625C201.125 16.8333 201.042 17.1042 200.875 17.4375C200.729 17.7292 200.5 18.1146 200.188 18.5938C199.896 19.0729 199.542 19.5833 199.125 20.125C198.708 20.6667 198.26 21.2188 197.781 21.7812C197.302 22.3229 196.802 22.8229 196.281 23.2812C195.76 23.7188 195.24 24.0729 194.719 24.3438C194.219 24.6354 193.74 24.7812 193.281 24.7812Z" fill="black"/>
</svg>
