<svg width="30" height="53" viewBox="0 0 30 53" fill="none" xmlns="http://www.w3.org/2000/svg">
<path d="M7.23173 14.8102C7.23173 7.08382 13.3242 0.820312 20.8397 0.820312H27.6437C28.8963 0.820312 29.9117 1.86423 29.9117 3.15197V12.4786C29.9117 13.7663 28.8963 14.8102 27.6437 14.8102H20.8397V19.4736H27.6437C29.1192 19.4736 30.2019 20.8991 29.844 22.3707L27.576 31.6973C27.3236 32.7353 26.4164 33.4635 25.3757 33.4635H20.8397V49.7851C20.8397 51.0728 19.8243 52.1167 18.5717 52.1167H9.49973C8.24715 52.1167 7.23173 51.0728 7.23173 49.7851V33.4635H2.69573C1.44315 33.4635 0.427734 32.4196 0.427734 31.1318V21.8052C0.427734 20.5175 1.44315 19.4736 2.69573 19.4736H7.23173V14.8102ZM25.3757 5.48362H20.8397C15.8294 5.48362 11.7677 9.65929 11.7677 14.8102V21.8052C11.7677 23.0929 10.7523 24.1369 9.49973 24.1369H4.96373V28.8002H9.49973C10.7523 28.8002 11.7677 29.8441 11.7677 31.1318V47.4534H16.3037V31.1318C16.3037 29.8441 17.3191 28.8002 18.5717 28.8002H23.6049L24.7389 24.1369H18.5717C17.3191 24.1369 16.3037 23.0929 16.3037 21.8052V14.8102C16.3037 12.2348 18.3346 10.1469 20.8397 10.1469H25.3757V5.48362Z" fill="black"/>
</svg>
