<svg width="51" height="53" viewBox="0 0 51 53" fill="none" xmlns="http://www.w3.org/2000/svg">
<path d="M36.6744 0.820312C44.1898 0.820312 50.2822 7.08382 50.2822 14.8102V38.1268C50.2822 45.8532 44.1898 52.1167 36.6744 52.1167H13.9946C6.47917 52.1167 0.386719 45.8532 0.386719 38.1268V14.8102C0.386719 7.08382 6.47917 0.820312 13.9946 0.820312H36.6744ZM36.6744 5.48362H13.9946C8.98431 5.48362 4.92267 9.65929 4.92267 14.8102V38.1268C4.92267 43.2777 8.98431 47.4534 13.9946 47.4534H36.6744C41.6846 47.4534 45.7463 43.2777 45.7463 38.1268V14.8102C45.7463 9.65929 41.6846 5.48362 36.6744 5.48362ZM27.096 14.8355C32.0373 15.5888 35.9171 19.5775 36.6498 24.6576C37.3674 29.6326 34.9007 34.52 30.5309 36.7812C26.1611 39.0424 20.8733 38.1677 17.4141 34.6113C13.9548 31.0549 13.104 25.6187 15.3034 21.1262C17.5029 16.6337 22.2568 14.0977 27.096 14.8355ZM19.3551 23.2228C18.0354 25.9183 18.5459 29.18 20.6215 31.3138C22.6971 33.4477 25.8697 33.9725 28.4916 32.6158C31.1135 31.2591 32.5935 28.3266 32.1629 25.3416C31.7233 22.2936 29.3954 19.9003 26.4306 19.4483C23.5271 19.0057 20.6748 20.5273 19.3551 23.2228ZM41.1859 12.1369C41.0394 11.1209 40.2635 10.3232 39.2752 10.1725C38.3074 10.025 37.3567 10.5321 36.9168 11.4306C36.4769 12.3291 36.6471 13.4163 37.3389 14.1275C38.0308 14.8388 39.0883 15.0137 39.9622 14.5615C40.8361 14.1093 41.3294 13.1318 41.1859 12.1369Z" fill="black"/>
</svg>
