<svg width="35" height="33" viewBox="0 0 35 33" fill="none" xmlns="http://www.w3.org/2000/svg">
<path fill-rule="evenodd" clip-rule="evenodd" d="M16.0619 1.01636L11.7256 9.81789L2.02819 11.238C0.783973 11.4202 0.28808 12.9525 1.18886 13.8315L8.20457 20.6777L6.54885 30.3497C6.33622 31.5917 7.63754 32.5389 8.75082 31.9523L17.4226 27.3833L26.0944 31.9523C27.2077 32.5389 28.5091 31.5917 28.2964 30.3497L26.6407 20.6777L33.6564 13.8315C34.5572 12.9525 34.0613 11.4202 32.8171 11.238L23.1197 9.81789L18.7834 1.01636C18.2267 -0.113527 16.6186 -0.113527 16.0619 1.01636ZM12.953 12.7112C13.4468 12.6389 13.8735 12.328 14.0943 11.8798L17.4226 5.1242L20.751 11.8798C20.9718 12.328 21.3985 12.6389 21.8922 12.7112L29.3374 13.8015L23.9513 19.0574C23.5934 19.4067 23.43 19.9102 23.5145 20.4036L24.7853 27.8269L18.129 24.3198C17.6868 24.0869 17.1585 24.0869 16.7163 24.3198L10.06 27.8269L11.3308 20.4036C11.4153 19.9102 11.2519 19.4067 10.894 19.0574L5.50787 13.8015L12.953 12.7112Z" fill="black"/>
</svg>
