<svg width="30" height="28" viewBox="0 0 30 28" fill="none" xmlns="http://www.w3.org/2000/svg">
<path fill-rule="evenodd" clip-rule="evenodd" d="M13.6383 0.748205L9.92105 8.26573L1.60825 9.47866C0.54168 9.63428 0.116589 10.943 0.888756 11.6938L6.90278 17.5413L5.48346 25.8022C5.30119 26.8631 6.41672 27.6721 7.37105 27.1711L14.8047 23.2686L22.2384 27.1711C23.1927 27.6721 24.3083 26.8631 24.126 25.8022L22.7067 17.5413L28.7207 11.6938C29.4929 10.943 29.0678 9.63428 28.0012 9.47866L19.6884 8.26573L15.9712 0.748205C15.494 -0.21685 14.1154 -0.21685 13.6383 0.748205ZM10.9733 10.7369C11.3965 10.6752 11.7623 10.4097 11.9516 10.0268L14.8047 4.25678L17.6578 10.0268C17.8472 10.4097 18.2129 10.6752 18.6362 10.7369L25.0183 11.6682L20.4013 16.1574C20.0944 16.4557 19.9544 16.8857 20.0268 17.3071L21.1161 23.6475L15.4102 20.6521C15.0312 20.4531 14.5783 20.4531 14.1992 20.6521L8.49331 23.6475L9.58267 17.3071C9.65507 16.8857 9.51502 16.4557 9.20819 16.1574L4.59111 11.6682L10.9733 10.7369Z" fill="white"/>
</svg>
