<svg width="55" height="47" viewBox="0 0 55 47" fill="none" xmlns="http://www.w3.org/2000/svg">
<path d="M51.26 0.602711C52.9725 -0.639146 55.2668 0.966563 54.7709 3.05986C53.994 6.33957 52.4368 9.36254 50.2468 11.8608C50.2805 12.2385 50.2981 12.6186 50.2993 13.001C50.2993 40.6542 24.3395 54.8598 1.56956 41.8544C-0.518562 40.6618 0.374308 37.3886 2.76114 37.4862C6.58638 37.6426 10.3731 36.8608 13.8164 35.2301C8.81736 32.0622 5.61639 27.8682 4.04608 22.9067C2.42474 17.784 2.66139 12.4007 4.01401 7.28815C4.42317 5.74161 4.83904 4.57632 5.13449 3.89287C5.85044 2.23672 8.04997 2.01665 9.06308 3.4998C12.8543 9.04994 18.8487 12.5146 25.3505 13.0162C25.3157 7.68919 28.5007 2.89467 33.347 0.992941C37.7297 -0.72685 42.6325 0.248196 46.0645 3.40594C47.9063 2.70988 49.6533 1.76788 51.26 0.602711ZM46.0997 8.30842C45.2455 8.57287 44.3198 8.29793 43.7344 7.60589C41.561 5.03667 38.0587 4.1357 34.9645 5.34987C31.8703 6.56403 29.8426 9.63505 29.8872 13.0709V15.4027C29.8872 16.6669 28.9072 17.7009 27.6779 17.7337C20.2826 17.9308 13.2172 14.9378 8.12344 9.60424C7.2275 13.5801 7.16199 17.6802 8.3595 21.4637C9.895 26.3152 13.4101 30.2537 19.4682 33.0218C21.0939 33.7646 21.2928 36.0547 19.8209 37.0819C17.2827 38.8532 14.5017 40.1825 11.5888 41.0373C29.0053 45.7481 45.7633 33.8613 45.7633 13.0087C45.7617 12.5035 45.7144 11.9996 45.6222 11.5034C45.48 10.7389 45.7183 9.95195 46.2573 9.40543C46.7625 8.89317 47.2305 8.3472 47.6586 7.77205C47.1449 7.96688 46.625 8.14579 46.0997 8.30842Z" fill="black"/>
</svg>
