<svg width="228" height="26" viewBox="0 0 228 26" fill="none" xmlns="http://www.w3.org/2000/svg">
<path d="M22.202 1.302L13.26 25H9.69L0.748 1.302H4.046L11.492 21.736L18.938 1.302H22.202ZM48.667 19.73H38.331L36.427 25H33.163L41.731 1.438H45.301L53.835 25H50.571L48.667 19.73ZM47.783 17.214L43.499 5.246L39.215 17.214H47.783ZM79.1116 25L73.4676 15.31H69.7276V25H66.6336V1.302H74.2836C76.0743 1.302 77.5816 1.608 78.8056 2.22C80.0523 2.832 80.9816 3.65933 81.5936 4.702C82.2056 5.74467 82.5116 6.93467 82.5116 8.272C82.5116 9.904 82.0356 11.3433 81.0836 12.59C80.1543 13.8367 78.749 14.664 76.8676 15.072L82.8176 25H79.1116ZM69.7276 12.828H74.2836C75.961 12.828 77.219 12.42 78.0576 11.604C78.8963 10.7653 79.3156 9.65467 79.3156 8.272C79.3156 6.86667 78.8963 5.77867 78.0576 5.008C77.2416 4.23733 75.9836 3.852 74.2836 3.852H69.7276V12.828ZM99.4776 1.302V25H96.3836V1.302H99.4776ZM116.909 3.818V11.74H125.545V14.29H116.909V22.45H126.565V25H113.815V1.268H126.565V3.818H116.909ZM154.897 1.302V3.818H148.437V25H145.343V3.818H138.849V1.302H154.897ZM170.864 1.302V25H167.77V1.302H170.864ZM188.296 3.818V11.74H196.932V14.29H188.296V22.45H197.952V25H185.202V1.268H197.952V3.818H188.296ZM219.212 25.238C217.648 25.238 216.243 24.966 214.996 24.422C213.772 23.8553 212.809 23.0847 212.106 22.11C211.403 21.1127 211.041 19.968 211.018 18.676H214.316C214.429 19.7867 214.883 20.7273 215.676 21.498C216.492 22.246 217.671 22.62 219.212 22.62C220.685 22.62 221.841 22.2573 222.68 21.532C223.541 20.784 223.972 19.832 223.972 18.676C223.972 17.7693 223.723 17.0327 223.224 16.466C222.725 15.8993 222.102 15.4687 221.354 15.174C220.606 14.8793 219.597 14.562 218.328 14.222C216.764 13.814 215.506 13.406 214.554 12.998C213.625 12.59 212.82 11.9553 212.14 11.094C211.483 10.21 211.154 9.03133 211.154 7.558C211.154 6.266 211.483 5.12133 212.14 4.124C212.797 3.12667 213.715 2.356 214.894 1.812C216.095 1.268 217.467 0.995999 219.008 0.995999C221.229 0.995999 223.043 1.55133 224.448 2.662C225.876 3.77267 226.681 5.246 226.862 7.082H223.462C223.349 6.17533 222.873 5.382 222.034 4.702C221.195 3.99933 220.085 3.648 218.702 3.648C217.41 3.648 216.356 3.988 215.54 4.668C214.724 5.32533 214.316 6.25467 214.316 7.456C214.316 8.31733 214.554 9.02 215.03 9.564C215.529 10.108 216.129 10.5273 216.832 10.822C217.557 11.094 218.566 11.4113 219.858 11.774C221.422 12.2047 222.68 12.6353 223.632 13.066C224.584 13.474 225.4 14.12 226.08 15.004C226.76 15.8653 227.1 17.044 227.1 18.54C227.1 19.696 226.794 20.784 226.182 21.804C225.57 22.824 224.663 23.6513 223.462 24.286C222.261 24.9207 220.844 25.238 219.212 25.238Z" fill="#2B2B2B"/>
</svg>
